<svg width="127" height="93" viewBox="0 0 127 93" fill="none" xmlns="http://www.w3.org/2000/svg">
<g clip-path="url(#clip0)">
<path d="M108.476 73.6307C118.697 73.6307 127 65.3965 127 55.2208C127 45.9492 120.077 38.353 111.095 37.077C110.952 25.2948 101.554 15.78 89.9622 15.78C86.9003 15.78 84.0001 16.4593 81.3724 17.6159C76.1815 7.18774 65.4027 0 52.9059 0C35.3753 0 21.1697 14.123 21.1697 31.5554C9.47651 31.5554 0 40.9738 0 52.5953C0 64.2123 9.47651 73.6307 21.1651 73.6307H108.476Z" fill="#00D4F9"/>
<path d="M41.79 43.489C41.79 40.1476 42.5751 36.8521 44.0852 33.8641C45.5954 30.8715 47.789 28.2736 50.486 26.2724C55.9678 22.2104 63.0475 20.939 69.6145 22.8392L70.4273 20.939C64.807 19.2499 58.7618 19.6768 53.4416 22.1415C48.1261 24.6017 43.919 28.9254 41.6191 34.2818C39.3285 39.6335 39.116 45.6417 41.0234 51.1358C42.9353 56.639 46.833 61.2472 51.9592 64.07L52.772 62.1698C49.4423 60.2926 46.676 57.5754 44.741 54.2936C42.8106 51.0164 41.7946 47.2894 41.79 43.489ZM75.7613 23.3074L74.9439 25.2076C79.3635 27.8972 82.6655 32.0786 84.2495 36.9852C85.8289 41.8872 85.5842 47.1885 83.5568 51.9206C81.5248 56.662 77.8487 60.5221 73.1982 62.7986C68.5431 65.0798 63.2183 65.6352 58.1845 64.3638L57.3671 66.264C62.9043 67.7281 68.7879 67.159 73.9418 64.6713C79.0864 62.1836 83.155 57.9334 85.3995 52.7009C87.6393 47.4776 87.8979 41.6255 86.1245 36.2233C84.3511 30.821 80.6704 26.2357 75.7659 23.312" fill="white"/>
<path d="M60.318 29.6965L49.8994 54.0136H56.2586L66.6773 29.7011L60.318 29.6965Z" fill="white"/>
<path d="M70.7366 54.0136H77.0958L69.8592 37.1275L66.6772 44.5493L70.7366 54.0136Z" fill="white"/>
<path d="M69.6281 92.2197C68.686 91.6965 67.9425 90.9759 67.4022 90.0579C66.8618 89.1399 66.5894 88.1072 66.5894 86.9597C66.5894 85.8123 66.8618 84.7795 67.4022 83.8616C67.9425 82.9436 68.686 82.223 69.6281 81.6997C70.5702 81.1765 71.6278 80.9149 72.8054 80.9149C73.6736 80.9149 74.4726 81.0526 75.2023 81.3325C75.9319 81.6125 76.5554 82.021 77.068 82.5672L76.5185 83.1272C75.5579 82.1863 74.334 81.7135 72.8378 81.7135C71.831 81.7135 70.9212 81.943 70.0992 82.3928C69.2771 82.8472 68.6306 83.4714 68.1642 84.2746C67.6977 85.0779 67.4622 85.9683 67.4622 86.9551C67.4622 87.942 67.6977 88.837 68.1642 89.6356C68.6306 90.4343 69.2771 91.0631 70.0992 91.5175C70.9212 91.9719 71.8356 92.1968 72.8378 92.1968C74.3202 92.1968 75.5486 91.7194 76.5185 90.7647L77.068 91.3247C76.5554 91.8709 75.9273 92.284 75.193 92.5685C74.4587 92.8531 73.6598 92.9954 72.8054 92.9954C71.6324 93 70.5702 92.743 69.6281 92.2197Z" fill="white"/>
<path d="M79.2295 81.0021H80.1023V92.1325H87.0065V92.9174H79.2295V81.0021Z" fill="white"/>
<path d="M90.1373 92.2105C89.1906 91.6827 88.4425 90.9575 87.9022 90.0395C87.3618 89.1215 87.0894 88.0934 87.0894 86.9597C87.0894 85.826 87.3618 84.7979 87.9022 83.8799C88.4425 82.9619 89.1906 82.2367 90.1373 81.7089C91.0841 81.1811 92.1463 80.9194 93.3239 80.9194C94.5015 80.9194 95.5637 81.1811 96.5104 81.7043C97.4572 82.2275 98.2053 82.9482 98.7456 83.8661C99.286 84.7841 99.5584 85.8168 99.5584 86.9643C99.5584 88.1118 99.286 89.1445 98.7456 90.0624C98.2053 90.9804 97.4572 91.701 96.5104 92.2243C95.5637 92.7475 94.5015 93.0091 93.3239 93.0091C92.1509 93 91.0887 92.7383 90.1373 92.2105ZM96.0486 91.522C96.8568 91.0676 97.4987 90.4434 97.9652 89.6402C98.4316 88.837 98.6671 87.9465 98.6671 86.9597C98.6671 85.9729 98.4316 85.0778 97.9652 84.2792C97.4987 83.4806 96.8568 82.8518 96.0486 82.3974C95.2358 81.943 94.3307 81.7181 93.3239 81.7181C92.3171 81.7181 91.4074 81.9476 90.5899 82.3974C89.7725 82.8518 89.1306 83.476 88.6642 84.2792C88.1977 85.0824 87.9622 85.9729 87.9622 86.9597C87.9622 87.9465 88.1977 88.8415 88.6642 89.6402C89.1306 90.4388 89.7725 91.0676 90.5899 91.522C91.4074 91.9764 92.3171 92.2013 93.3239 92.2013C94.3307 92.2013 95.2358 91.9764 96.0486 91.522Z" fill="white"/>
<path d="M102.976 91.6919C102.136 90.8198 101.715 89.5392 101.715 87.8639V81.0021H102.588V87.8272C102.588 89.2914 102.925 90.3884 103.6 91.1136C104.274 91.8388 105.248 92.2014 106.527 92.2014C107.797 92.2014 108.767 91.8388 109.437 91.1136C110.107 90.3884 110.448 89.2914 110.448 87.8272V81.0021H111.321V87.8639C111.321 89.5438 110.896 90.8198 110.051 91.6919C109.206 92.564 108.024 93.0046 106.504 93.0046C104.985 93.0046 103.817 92.564 102.976 91.6919Z" fill="white"/>
<path d="M114.632 81.0021H119.375C120.617 81.0021 121.726 81.2591 122.691 81.7686C123.656 82.2781 124.404 82.9849 124.945 83.8891C125.485 84.7933 125.748 85.8169 125.748 86.9597C125.748 88.1072 125.48 89.1307 124.945 90.0304C124.409 90.93 123.656 91.6368 122.691 92.1509C121.726 92.6604 120.622 92.9174 119.375 92.9174H114.632V81.0021ZM119.306 92.1325C120.414 92.1325 121.389 91.9122 122.234 91.4762C123.079 91.0401 123.73 90.4297 124.187 89.6448C124.645 88.8599 124.871 87.9649 124.871 86.9551C124.871 85.9454 124.64 85.0503 124.187 84.2655C123.73 83.4806 123.079 82.8747 122.234 82.4341C121.389 81.9981 120.414 81.7778 119.306 81.7778H115.505V92.1279H119.306V92.1325Z" fill="white"/>
<path d="M26.6424 85.2385C26.6424 84.0819 26.176 82.9712 25.3539 82.1587C24.5273 81.3417 23.4097 80.8828 22.2413 80.8828H16.7687V92.8348H19.7798V89.5943H22.1258L23.8622 92.8348H27.1042L24.8921 88.7085C25.9912 87.8869 26.6424 86.6017 26.6424 85.2385C26.6424 85.234 26.6424 85.2385 26.6424 85.2385ZM22.1581 87.0699H19.7705V83.4072H22.1581C22.6477 83.4072 23.1187 83.6 23.4697 83.9442C24.1901 84.6556 24.1948 85.8169 23.4743 86.5329L23.4697 86.5375C23.1233 86.8817 22.6523 87.0745 22.1581 87.0745V87.0699ZM2.00439 92.8302H5.1309L10.2525 80.8828L7.12596 80.8782L2.00439 92.8302ZM10.2525 88.1807L12.2475 92.8348H15.374L11.818 84.5363L10.2525 88.1807ZM28.9607 92.8302H38.4188V90.3103H31.9672V88.1164H35.186L36.2667 85.592H31.9672V83.4026H38.4188V80.8828H28.9607V92.8302ZM48.1816 87.8456L43.5126 80.8782H40.2706V92.8302H43.2771V85.8674L47.9461 92.8302H51.188V80.8782H48.1816V87.8456ZM52.8644 92.8302H55.9909L61.1125 80.8828L57.986 80.8782L52.8644 92.8302ZM61.1125 88.1807L63.1076 92.8348H66.2341L62.6781 84.5363L61.1125 88.1807Z" fill="white"/>
</g>
<defs>
<clipPath id="clip0">
<rect width="127" height="93" fill="white"/>
</clipPath>
</defs>
</svg>
