<?xml version="1.0" encoding="utf-8"?>
<!-- Generator: Adobe Illustrator 25.2.0, SVG Export Plug-In . SVG Version: 6.00 Build 0)  -->
<svg version="1.1" id="Layer_1" xmlns="http://www.w3.org/2000/svg" xmlns:xlink="http://www.w3.org/1999/xlink" x="0px" y="0px"
	 viewBox="0 0 595.3 841.9" style="enable-background:new 0 0 595.3 841.9;" xml:space="preserve">
<style type="text/css">
	.st0{fill:#F7941D;}
</style>
<path class="st0" d="M374.5,438.3c-4.6,3.5-9.1,6.4-13,8.9c-0.4,0.3-0.8,0.5-1,0.6c-0.1,0.1-2.1,1.3-5.6,3.4
	c15.7,33.8,17.1,44.9,17.1,66.3c17.2-13.3,30.8-31,38.9-51.5c-8.1-0.3-15.4-3-21.7-8.1C383.6,453.3,378.7,446.8,374.5,438.3z
	 M378.2,423.6c14.1-12.5,27.8-29.8,31-51.6c-11.1-25.2-30.5-46-54.8-58.8c5.4,10.7,10,26.5,12.2,49.6
	C369.1,388.4,372.9,408.6,378.2,423.6z M414.8,387.3c-6.6,19-19.8,34.1-33,45.2c3.8,8.2,8.1,14.2,13.1,18.3c5.5,4.5,11.8,6.4,19.2,6
	c3.5-11.3,5.4-23.4,5.4-35.9C419.5,409.3,417.8,398,414.8,387.3z M322.4,458.1c8.2-4,15.2-7.7,20.7-10.7c-4.3-9-9.5-19.6-15.9-32.2
	c-34.6-68.6-78.7-92-93.3-98.1c-25,15.4-44.1,39.6-52.8,68.3c13.7,6.5,42.6,19.5,60.2,23.3C264.8,413.8,306.9,430,322.4,458.1z
	 M335.3,411.1c6.2,12.4,11.4,22.8,15.7,31.8c2.8-1.6,4.4-2.6,4.5-2.7c0.2-0.2,0.7-0.4,1.2-0.8c4.2-2.6,9.1-5.8,14.1-9.7
	c-6.2-16.1-10.5-37.9-13.2-66.1c-3.2-33.4-11.4-49.4-18.3-57.1c-13-4.7-27.1-7.3-41.7-7.3c-19.3,0-37.5,4.5-53.7,12.4
	C263.8,321.2,303.3,347.4,335.3,411.1z M326.1,466.4c0.9,2.7,1.6,5.6,2,8.5c4.1,31.6-10.9,55.4-41.6,67.4c3.7,0.3,7.4,0.5,11.2,0.5
	c24,0,46.4-6.9,65.2-18.9c0.2-24.7,0.1-33.8-15.9-68.2C341.4,458.7,334.3,462.4,326.1,466.4z M319,476.1c-0.3-2-0.7-3.9-1.2-5.8
	c-20,9.1-45,18.6-70.1,23.3c-9.5,1.8-17.8,2.5-25.1,2.5c-9.5,0-17.2-1.3-23.3-3.2c16.2,22.1,39.8,38.6,67,45.8
	C304.5,530.7,323.2,508.5,319,476.1z M246,484.7c24.5-4.6,48.7-13.8,68.2-22.7c-14.7-25.9-57.2-40.6-74.8-44.4
	c-18-3.9-46.1-16.4-60.6-23.3c-1.9,8.6-2.9,17.5-2.9,26.7c0,20.7,5.2,40.2,14.3,57.3C197.3,483.7,213.4,490.8,246,484.7z"/>
</svg>
