<svg version="1.1" id="Layer_1" xmlns="http://www.w3.org/2000/svg" xmlns:xlink="http://www.w3.org/1999/xlink" x="0px" y="0px" viewBox="0 0 595.3 841.9" style="enable-background:new 0 0 595.3 841.9;" xml:space="preserve">
<style type="text/css">
	.st0{fill:#FFFFFF;}
</style>
<g>
	<circle class="st0" cx="291.3" cy="389.9" r="122.8" fill="#000000"/>
	<path d="M291.4,264.6c-69.1,0-125.3,56-125.3,125.1c0,30.8,11,59,29.5,80.8v0.9h0.7c23,26.2,57,43.7,95.1,43.7   c69.1,0,125.1-56.1,125.1-125.3C416.6,320.8,360.5,264.6,291.4,264.6z M398.2,428.9l-10.6-31l2.5-49.5l10.7-5   c6,14.2,9.4,29.9,9.4,46.3c0,14.5-2.6,28.5-7.4,41.3L398.2,428.9z M280.6,477.6l-38.7-28.8l0.6,0.2l14.3-47.7l48.4-17.1l38.4,31.5   l-13.5,46.9L280.6,477.6z M201,450.1l-25.7-36.6l12.3-50l37.8-4.6l26.6,40.9L238,445.9l-0.5-0.4L201,450.1z M348.8,316.8l36.1,31.1   l-2.5,48.6l-35.3,15.2L308.4,380l0.5-48L348.8,316.8z M345.5,284l1.1,28l-40.4,15.5l-49.1-15.7l-3.3-23.3l25.4-16.9   c4-0.4,8.1-0.6,12.2-0.6C310.9,270.9,329.3,275.7,345.5,284z M227.1,290.7h21.6l3.3,22.9l-27.1,40.3l-37.1,4.3v-25.6h-0.2   C197.2,314,210.8,301.4,227.1,290.7z M178.5,427.5l17.2,24.4v8.5C187.8,450.6,182.5,439.5,178.5,427.5z M263.7,505.4l18-23.3   l0.2,0.6l50.5-15.3l28.2,9.1l4.8,6.3l1.9-1.5c-20.6,17.1-47,27.3-75.8,27.3C281.9,508.6,272.6,507.5,263.7,505.4z M369.4,479.5   l-4-5.2l31.4-40.2l4.1,2C393.8,452.8,382.9,467.6,369.4,479.5z" fill="#000000"/>
</g>
</svg>